:SAMPLES-PER-SECOND 30
:FULLY-SPECIFIED
:DEGREES
281
root  34.68461224 36.51615954 -14.64808607 8.818892479 -5.046782017 4.046206474
lowerback  -8.488929749 -0.6662720442 -1.722689748
upperback  -3.732635975 -0.1804099977 -4.369249821
thorax  0.8882009983 0.1095950007 -3.566329956
lowerneck  -6.932670116 -14.21199989 -9.707380295
upperneck  11.4343996 -19.49979782 11.22029972
head  6.675409794 -9.085399628 3.246550083
lclavicle  0 -4.497500157e-015 -2.743230041e-014
lhumerus  -47.68030167 30.49220085 61.69810104
lradius  0.0101411147 -6.507048965e-006 29.77840042
lwrist  4.824992743e-007 -3.790274832e-007 -29.43939972
lhand  -0 -36.82770157 -10.24120045
lfingers  90 7.125020027 -90
lthumb  94.69081669 -25.08746133 100.9526103
rclavicle  0 -4.497500157e-015 -2.743230041e-014
rhumerus  -25.02230072 -38.47219849 -12.07900047
rradius  -5.16745672e-007 2.214343908e-008 102.0719986
rwrist  -2.867388866e-005 0.0111028729 176.6349945
rhand  -0 3.112400055 -4.85612011
rfingers  -90 -7.125020027 -90
rthumb  -84.0442551 -10.78909429 -60.869085
rfemur  -12.25503159 15.60926437 12.79077816
rtibia  -1.324239254 -1.312892199 20.82557678
rfoot  0.3871655762 -22.23487473 -35.50994873
rtoes  3.844108393 19.641957 -101.3041849
lfemur  -6.438282013 -17.35382652 -21.64289665
ltibia  4.36853838 -1.229272008 12.21723747
lfoot  0.9496729374 -21.74860191 37.51187134
ltoes  -8.585376663 -18.13207512 -115.8791394
282
root  34.68349787 36.51334207 -14.65359635 8.756280899 -5.038731098 4.028038502
lowerback  -8.554019928 -0.6885589957 -1.730589628
upperback  -3.731075764 -0.2061199993 -4.356210232
thorax  0.9250460267 0.09720630199 -3.551150084
lowerneck  -7.024620056 -14.15429974 -9.66520977
upperneck  11.52530003 -19.42360115 11.20619965
head  6.706250191 -9.040690422 3.238470078
lclavicle  0 -4.497500157e-015 -2.743230041e-014
lhumerus  -47.71440125 30.38199997 61.7641983
lradius  0.009118389338 -6.507048965e-006 29.89170074
lwrist  4.824992743e-007 -3.790274832e-007 -29.27429962
lhand  -0 -36.79150009 -10.21730042
lfingers  90 7.125020027 -90
lthumb  94.66923336 -25.0652647 100.9120208
rclavicle  0 -4.497500157e-015 -2.743230041e-014
rhumerus  -26.29069901 -38.21549606 -12.00290012
rradius  -5.16745672e-007 2.214343908e-008 103.2259979
rwrist  -2.867388866e-005 0.0111028729 176.5780029
rhand  -1.768510709e-031 3.308809996 -4.24612999
rfingers  -90 -7.125020027 -90
rthumb  -83.68830413 -11.32880751 -60.61774152
rfemur  -12.17539501 15.66529846 12.82112122
rtibia  -1.312233686 -1.292449355 20.78826141
rfoot  0.408151418 -22.2083931 -35.54476166
rtoes  3.833994232 19.64385852 -101.2740972
lfemur  -6.433906078 -17.31511879 -21.61408043
ltibia  4.314640522 -1.211550593 12.3082428
lfoot  0.9539738894 -21.8494854 37.49056625
ltoes  -8.62886698 -18.11196113 -116.0189608
283
root  34.68300226 36.51381065 -14.6604568 8.71434021 -5.035617352 4.019601822
lowerback  -8.590109825 -0.710695982 -1.72939992
upperback  -3.728805542 -0.2355320007 -4.331960201
thorax  0.9429649711 0.08225370198 -3.529530048
lowerneck  -7.10491991 -14.1104002 -9.631919861
upperneck  11.61870003 -19.36529732 11.18350029
head  6.737780094 -9.006019592 3.227329969
lclavicle  0 -4.497500157e-015 -2.743230041e-014
lhumerus  -47.76119995 30.32169914 61.80379868
lradius  0.008094864897 -6.507048965e-006 29.9776001
lwrist  4.824992743e-007 -3.790274832e-007 -29.1182003
lhand  -4.404560901e-031 -36.70750046 -10.33139992
lfingers  90 7.125020027 -90
lthumb  94.65429932 -25.18017779 100.8324777
rclavicle  0 -4.497500157e-015 -2.743230041e-014
rhumerus  -27.62109947 -37.93889999 -11.88500118
rradius  -5.16745672e-007 2.214343908e-008 104.3860016
rwrist  -2.867388866e-005 0.0111028729 176.539917
rhand  -1.768824823e-031 3.480360031 -4.557779789
rfingers  -90 -7.125020027 -90
rthumb  -83.79825243 -11.06390751 -60.47926671
rfemur  -12.13476372 15.68994331 12.83768845
rtibia  -1.310480118 -1.281727552 20.78564072
rfoot  0.3881419003 -22.20896912 -35.60907364
rtoes  3.842185163 19.64231898 -101.2984634
lfemur  -6.426407337 -17.31032372 -21.59374809
ltibia  4.283230305 -1.212631583 12.3470068
lfoot  0.9314405322 -21.86531639 37.45449448
ltoes  -8.583886977 -18.13276184 -115.8743527
284
root  34.6829482 36.51521938 -14.66610375 8.694281578 -5.035300732 4.011883259
lowerback  -8.609329224 -0.7347068787 -1.71724999
upperback  -3.72676158 -0.270453006 -4.306210041
thorax  0.9625449777 0.06370989978 -3.512949944
lowerneck  -7.164010048 -14.05360031 -9.655200005
upperneck  11.69079971 -19.29130173 11.22389889
head  6.769720078 -8.963089943 3.24684
lclavicle  0 -4.497500157e-015 -2.743230041e-014
lhumerus  -47.7779007 30.2560997 61.86230087
lradius  0.007069340441 -6.507048965e-006 30.0177002
lwrist  4.824992743e-007 -3.790274832e-007 -28.92840004
lhand  -4.39971065e-031 -36.62269974 -10.45149994
lfingers  90 7.125020027 -90
lthumb  94.63993475 -25.30104937 100.7525964
rclavicle  0 -4.497500157e-015 -2.743230041e-014
rhumerus  -28.96109962 -37.75640106 -11.73759842
rradius  -5.16745672e-007 2.214343908e-008 105.4580002
rwrist  -2.867388866e-005 0.0111028729 176.0390015
rhand  -1.769555065e-031 3.849570036 -4.621349812
rfingers  -90 -7.125020027 -90
rthumb  -83.73115541 -11.02335098 -60.12239063
rfemur  -12.13069344 15.71156025 12.85162067
rtibia  -1.313369036 -1.269333124 20.80183411
rfoot  0.3719853759 -22.19933319 -35.64644241
rtoes  3.853686887 19.64015137 -101.3326815
lfemur  -6.44766283 -17.30900764 -21.56838226
ltibia  4.246928692 -1.216563225 12.39736462
lfoot  0.9303646684 -21.87790489 37.46938324
ltoes  -8.562800085 -18.1424666 -115.8066146
